<svg width="31" height="30" viewBox="17 11 31 30" fill="none" xmlns="http://www.w3.org/2000/svg">
<path d="M38.9583 39.25V36.75C38.9583 35.4239 38.4139 34.1521 37.445 33.2145C36.4761 32.2768 35.1619 31.75 33.7916 31.75H23.4583C22.088 31.75 20.7738 32.2768 19.8049 33.2145C18.836 34.1521 18.2916 35.4239 18.2916 36.75V39.25" stroke="#231F20" stroke-width="2" stroke-linecap="round" stroke-linejoin="round"/>
<path d="M28.625 26.75C31.4785 26.75 33.7917 24.5114 33.7917 21.75C33.7917 18.9886 31.4785 16.75 28.625 16.75C25.7716 16.75 23.4584 18.9886 23.4584 21.75C23.4584 24.5114 25.7716 26.75 28.625 26.75Z" stroke="#231F20" stroke-width="2" stroke-linecap="round" stroke-linejoin="round"/>
<path d="M46.7084 39.25V36.75C46.7075 35.6422 46.3265 34.566 45.6251 33.6904C44.9238 32.8148 43.9418 32.1895 42.8334 31.9125" stroke="#231F20" stroke-width="2" stroke-linecap="round" stroke-linejoin="round"/>
<path d="M37.6666 16.9125C38.778 17.1879 39.763 17.8134 40.4665 18.6904C41.1699 19.5674 41.5518 20.646 41.5518 21.7562C41.5518 22.8665 41.1699 23.9451 40.4665 24.8221C39.763 25.6991 38.778 26.3246 37.6666 26.6" stroke="#231F20" stroke-width="2" stroke-linecap="round" stroke-linejoin="round"/>
</svg>
