<svg width="31" height="30" viewBox="17 11 31 30" fill="none" xmlns="http://www.w3.org/2000/svg">
<g clip-path="url(#clip0_99_546)">
<path fill-rule="evenodd" clip-rule="evenodd" d="M31.5312 33.5H33.4688V35.375H31.5312V33.5ZM31.5312 37.25H33.4688C34.5382 37.25 35.4062 36.41 35.4062 35.375V33.5C35.4062 32.465 34.5382 31.625 33.4688 31.625H31.5312C30.4618 31.625 29.5938 32.465 29.5938 33.5V35.375C29.5938 36.41 30.4618 37.25 31.5312 37.25ZM23.7812 33.5H25.7188V35.375H23.7812V33.5ZM23.7812 37.25H25.7188C26.7882 37.25 27.6562 36.41 27.6562 35.375V33.5C27.6562 32.465 26.7882 31.625 25.7188 31.625H23.7812C22.7118 31.625 21.8438 32.465 21.8438 33.5V35.375C21.8438 36.41 22.7118 37.25 23.7812 37.25ZM31.5312 26H33.4688V27.875H31.5312V26ZM31.5312 29.75H33.4688C34.5382 29.75 35.4062 28.91 35.4062 27.875V26C35.4062 24.965 34.5382 24.125 33.4688 24.125H31.5312C30.4618 24.125 29.5938 24.965 29.5938 26V27.875C29.5938 28.91 30.4618 29.75 31.5312 29.75ZM23.7812 26H25.7188V27.875H23.7812V26ZM23.7812 29.75H25.7188C26.7882 29.75 27.6562 28.91 27.6562 27.875V26C27.6562 24.965 26.7882 24.125 25.7188 24.125H23.7812C22.7118 24.125 21.8438 24.965 21.8438 26V27.875C21.8438 28.91 22.7118 29.75 23.7812 29.75ZM45.0938 18.5H19.9062V16.625C19.9062 15.59 20.7743 14.75 21.8438 14.75H25.7188V15.6875C25.7188 16.2059 26.1518 16.625 26.6875 16.625C27.2232 16.625 27.6562 16.2059 27.6562 15.6875V14.75H37.3438V15.6875C37.3438 16.2059 37.7768 16.625 38.3125 16.625C38.8482 16.625 39.2812 16.2059 39.2812 15.6875V14.75H43.1562C44.2257 14.75 45.0938 15.59 45.0938 16.625V18.5ZM45.0938 37.25C45.0938 38.285 44.2257 39.125 43.1562 39.125H21.8438C20.7743 39.125 19.9062 38.285 19.9062 37.25V20.375H45.0938V37.25ZM43.1562 12.875H39.2812V11.9375C39.2812 11.42 38.8482 11 38.3125 11C37.7768 11 37.3438 11.42 37.3438 11.9375V12.875H27.6562V11.9375C27.6562 11.42 27.2232 11 26.6875 11C26.1518 11 25.7188 11.42 25.7188 11.9375V12.875H21.8438C19.7038 12.875 17.9688 14.5541 17.9688 16.625V37.25C17.9688 39.3209 19.7038 41 21.8438 41H43.1562C45.2962 41 47.0312 39.3209 47.0312 37.25V16.625C47.0312 14.5541 45.2962 12.875 43.1562 12.875ZM39.2812 26H41.2188V27.875H39.2812V26ZM39.2812 29.75H41.2188C42.2882 29.75 43.1562 28.91 43.1562 27.875V26C43.1562 24.965 42.2882 24.125 41.2188 24.125H39.2812C38.2118 24.125 37.3438 24.965 37.3438 26V27.875C37.3438 28.91 38.2118 29.75 39.2812 29.75ZM39.2812 33.5H41.2188V35.375H39.2812V33.5ZM39.2812 37.25H41.2188C42.2882 37.25 43.1562 36.41 43.1562 35.375V33.5C43.1562 32.465 42.2882 31.625 41.2188 31.625H39.2812C38.2118 31.625 37.3438 32.465 37.3438 33.5V35.375C37.3438 36.41 38.2118 37.25 39.2812 37.25Z" fill="#231F20"/>
</g>
<defs>
<clipPath id="clip0_99_546">
<rect width="31" height="30" fill="white" transform="translate(17 11)"/>
</clipPath>
</defs>
</svg>
