<svg width="36" height="29" viewBox="0 0 36 29" fill="none" xmlns="http://www.w3.org/2000/svg">
<path d="M1 27.3768H4.4M4.4 27.3768H18M4.4 27.3768V6.27569C4.4 4.42913 4.4 3.50517 4.77058 2.79989C5.09654 2.17949 5.6163 1.67546 6.25606 1.35937C6.98335 1 7.93615 1 9.84034 1H12.5603C14.4645 1 15.4162 1 16.1434 1.35937C16.7831 1.67546 17.3038 2.17949 17.6297 2.79989C18 3.50448 18 4.42732 18 6.27027V11.297M18 27.3768H31.6M18 27.3768V11.297M18 11.297L18.6144 10.7617C19.8994 9.64228 20.542 9.0824 21.2684 8.87006C21.9083 8.68299 22.5912 8.68299 23.2311 8.87006C23.9577 9.08243 24.6006 9.64203 25.8858 10.7617L29.7958 14.1681C30.4602 14.7469 30.7916 15.0367 31.03 15.3839C31.2411 15.6916 31.398 16.0312 31.4929 16.3892C31.6 16.793 31.6 17.2267 31.6 18.0925V27.3768M31.6 27.3768H35" stroke="#231F20" stroke-width="2" stroke-linecap="round" stroke-linejoin="round"/>
</svg>
