<svg width="31" height="30" viewBox="17 11 31 30" fill="none" xmlns="http://www.w3.org/2000/svg">
<path d="M47.4497 24.6744L33.8711 11.5494C33.4924 11.1833 32.9958 11 32.4997 11C32.0035 11 31.507 11.1833 31.1282 11.5494L17.5496 24.6744C16.7921 25.4084 16.8299 26.5569 17.5874 27.2891C18.3468 28.025 19.4569 28.1333 20.2168 27.3988L20.8792 26.758V39.125C20.8792 40.1614 21.7468 41 22.819 41H30.5783V33.5H34.4579V41H42.2171C43.2893 41 44.1569 40.1614 44.1569 39.125V26.7945L44.7364 27.3547C45.4939 28.0869 46.6515 28.0212 47.4114 27.2886C48.1694 26.5569 48.2092 25.4066 47.4497 24.6744Z" fill="#231F20"/>
</svg>
