<svg width="31" height="30" viewBox="17 11 31 30" fill="none" xmlns="http://www.w3.org/2000/svg">
<g clip-path="url(#clip0_99_530)">
<path d="M31.2649 27.5938C30.9743 27.5938 30.7321 27.3594 30.7321 27.0781C30.7321 26.7969 30.9743 26.5625 31.2649 26.5625H33.7352C34.0258 26.5625 34.268 26.7969 34.268 27.0781C34.268 27.3594 34.0258 27.5938 33.7352 27.5938H31.2649ZM22.643 21.5938C22.2071 21.5938 21.8196 21.2188 21.8196 20.7969C21.8196 20.375 22.2071 20 22.643 20H23.3938C23.6602 20 23.8782 19.8125 23.8782 19.5547C24.0961 16.6484 25.9125 14 28.625 12.6875C28.7461 12.6172 28.8915 12.5938 28.9883 12.5938C29.4243 12.5938 29.8118 12.9687 29.8118 13.3906V15.0313C29.8118 15.2891 30.0297 15.5 30.2961 15.5C30.5625 15.5 30.7805 15.2891 30.7805 15.0313V12.6172C30.7805 12.2188 31.0954 11.8672 31.4829 11.8203C31.7977 11.7734 32.1368 11.7734 32.4516 11.7734C32.8149 11.7734 33.2024 11.7969 33.5172 11.8203C33.929 11.8672 34.2196 12.1953 34.2196 12.6172V15.0078C34.2196 15.2656 34.4375 15.4766 34.704 15.4766C34.9704 15.4766 35.1883 15.2656 35.1883 15.0078V13.3906C35.1883 12.9687 35.5758 12.5938 36.0118 12.5938C36.1086 12.5938 36.254 12.6172 36.3993 12.6875C39.1602 14.0703 40.9282 16.625 41.1461 19.5547C41.1704 19.8125 41.3641 20 41.6305 20H42.3813C42.8172 20 43.2047 20.375 43.2047 20.7969C43.2047 21.2188 42.8172 21.5938 42.3813 21.5938H22.643ZM39.8141 20.1875C39.7415 20 39.7172 19.8359 39.693 19.6484C39.5477 17.6094 38.4336 15.7109 36.7141 14.4922V15.0078C36.7141 16.0391 35.8422 16.8828 34.7766 16.8828C33.711 16.8828 32.8391 16.0391 32.8391 15.0078V13.1797H32.2579V14.9844C32.2579 16.0156 31.386 16.8594 30.3204 16.8594C29.2547 16.8594 28.3829 16.0156 28.3829 14.9844V14.4453C26.5907 15.6641 25.4766 17.5859 25.3071 19.6484C25.2829 19.8359 25.2586 20 25.186 20.1875H39.8141Z" fill="#231F20"/>
<path d="M19.5188 40.9531C18.8891 40.9531 18.3079 40.6953 17.9204 40.25C17.5813 39.8516 17.436 39.3359 17.5571 38.8438C18.5258 34.0391 23.0547 30.1016 28.9399 28.9766C26.6875 27.5703 25.3071 24.9922 25.3071 22.1094V21.9453H39.7414V22.1094C39.7414 24.9688 38.361 27.5703 36.0844 28.9766C41.9696 30.125 46.4985 34.0625 47.4672 38.8438C47.5641 39.3359 47.443 39.8516 47.1039 40.25C46.7164 40.6953 46.1352 40.9531 45.5055 40.9531H19.5188ZM32.5 30.0312C29.1821 30.0312 25.9852 30.9687 23.4907 32.7031C21.093 34.3672 19.4946 36.6406 18.986 39.1016C18.9618 39.2188 19.0102 39.3125 19.0586 39.3359C19.1797 39.4766 19.325 39.5469 19.5188 39.5469H45.5297C45.7235 39.5469 45.893 39.4766 45.9899 39.3594C46.0141 39.3359 46.0868 39.2422 46.0383 39.125C45.5539 36.6406 43.9555 34.3672 41.5336 32.7031C39.0149 30.9687 35.818 30.0312 32.5 30.0312ZM26.8329 23.3516C27.3657 26.3984 29.7149 28.6016 32.4758 28.6016C35.2368 28.6016 37.586 26.3984 38.1188 23.3516H26.8329Z" fill="#231F20"/>
</g>
<defs>
<clipPath id="clip0_99_530">
<rect width="31" height="30" fill="white" transform="translate(17 11)"/>
</clipPath>
</defs>
</svg>
